<?xml version="1.0" encoding="utf-8"?>
<!-- Generator: Adobe Illustrator 22.0.0, SVG Export Plug-In . SVG Version: 6.00 Build 0)  -->
<svg version="1.1" baseProfile="basic" id="Capa_1" xmlns="http://www.w3.org/2000/svg" xmlns:xlink="http://www.w3.org/1999/xlink"
	 x="0px" y="0px" viewBox="0 0 170.1 170.1" xml:space="preserve">
<style type="text/css">
	.st0{fill:#010002;}
</style>
<g>
	<path style="fill: currentColor" class="st0" d="M0.9,102.3c1.2-1.2,3.1-1.2,4.2,0l40.3,40.3V48.2c0-18.1,14.7-32.8,32.8-32.8h88.9c1.6,0,3,1.3,3,3
		c0,1.6-1.3,3-3,3H78.2c-14.8,0-26.9,12.1-26.9,26.9V144l41.5-41.6c1.2-1.2,3.1-1.2,4.2,0c1.2,1.2,1.2,3.1,0,4.2l-48,48.1L0.9,106.5
		C-0.3,105.4-0.3,103.5,0.9,102.3z"/>
</g>
</svg>
